<?xml version="1.0" encoding="UTF-8"?>
<svg width="17px" height="17px" viewBox="0 0 17 17" version="1.1" xmlns="http://www.w3.org/2000/svg" xmlns:xlink="http://www.w3.org/1999/xlink">
    <!-- Generator: Sketch 54.1 (76490) - https://sketchapp.com -->
    <title>arrow-circle-right-solid</title>
    <desc>Created with Sketch.</desc>
    <g id="Page-1" stroke="none" stroke-width="1" fill="none" fill-rule="evenodd">
        <g id="Desktop-HD" transform="translate(-238.000000, -271.000000)" fill="#22B4DE" fill-rule="nonzero">
            <g id="arrow-circle-right-solid" transform="translate(238.000000, 271.000000)">
                <path d="M8.5,0 C13.1955645,0 17,3.80443548 17,8.5 C17,13.1955645 13.1955645,17 8.5,17 C3.80443548,17 0,13.1955645 0,8.5 C0,3.80443548 3.80443548,0 8.5,0 Z M7.50947581,4.92177419 L10.0971774,7.40322581 L3.83870968,7.40322581 C3.3828629,7.40322581 3.01612903,7.76995968 3.01612903,8.22580645 L3.01612903,8.77419355 C3.01612903,9.23004032 3.3828629,9.59677419 3.83870968,9.59677419 L10.0971774,9.59677419 L7.50947581,12.0782258 C7.17701613,12.3969758 7.17016129,12.9282258 7.49576613,13.2538306 L7.87278226,13.6274194 C8.19495968,13.9495968 8.71592742,13.9495968 9.03467742,13.6274194 L13.5828629,9.08266129 C13.9050403,8.76048387 13.9050403,8.23951613 13.5828629,7.92076613 L9.03467742,3.36915323 C8.7125,3.04697581 8.19153226,3.04697581 7.87278226,3.36915323 L7.49576613,3.74274194 C7.17016129,4.07177419 7.17701613,4.60302419 7.50947581,4.92177419 Z" id="Shape"></path>
            </g>
        </g>
    </g>
</svg>