<?xml version="1.0" encoding="UTF-8"?>
<svg width="57px" height="9px" viewBox="0 0 57 9" version="1.1" xmlns="http://www.w3.org/2000/svg" xmlns:xlink="http://www.w3.org/1999/xlink">
    <!-- Generator: Sketch 52.3 (67297) - http://www.bohemiancoding.com/sketch -->
    <title>Group</title>
    <desc>Created with Sketch.</desc>
    <g id="Page-1" stroke="none" stroke-width="1" fill="none" fill-rule="evenodd">
        <g id="Artboard" transform="translate(-154.000000, -68.000000)">
            <g id="Group" transform="translate(154.000000, 68.000000)">
                <g id="plane-solid" transform="translate(24.000000, 0.000000)" fill="#50E3C2">
                    <path d="M8.33333333,3.33333333 L6.34913194,3.33333333 L4.52447917,0.139930556 C4.47495279,0.0533870631 4.3828725,-6.25359156e-06 4.28315972,-1.77791115e-15 L3.14600694,-1.77791115e-15 C2.96145833,-1.77791115e-15 2.82829861,0.1765625 2.87899306,0.353993056 L3.73020833,3.33333333 L1.94444444,3.33333333 L1.19444444,2.33333333 C1.14201389,2.26336806 1.05954861,2.22222222 0.972222222,2.22222222 L0.277951389,2.22222222 C0.0972222222,2.22222222 -0.0354166667,2.39201389 0.00850694444,2.56736111 L0.555555556,4.44444444 L0.00850694444,6.32152778 C-0.0354166667,6.496875 0.0972222222,6.66666667 0.277951389,6.66666667 L0.972222222,6.66666667 C1.05972222,6.66666667 1.14201389,6.62552083 1.19444444,6.55555556 L1.94444444,5.55555556 L3.73020833,5.55555556 L2.87899306,8.53472222 C2.82829861,8.71215278 2.96145833,8.88888889 3.14600694,8.88888889 L4.28315972,8.88888889 C4.3828125,8.88888889 4.47482639,8.83541667 4.52430556,8.74895833 L6.34913194,5.55555556 L8.33333333,5.55555556 C8.94704861,5.55555556 10,5.05815972 10,4.44444444 C10,3.83072917 8.94704861,3.33333333 8.33333333,3.33333333 Z" id="Path"></path>
                </g>
                <path d="M36.5,4.44444444 L56.5,4.44444444" id="Line" stroke="#9B9B9B" stroke-linecap="round" fill-rule="nonzero"></path>
                <path d="M0.5,4.44444444 L20.5,4.44444444" id="Line" stroke="#9B9B9B" stroke-linecap="round" fill-rule="nonzero"></path>
            </g>
        </g>
    </g>
</svg>