<?xml version="1.0" encoding="UTF-8"?>
<svg width="187px" height="43px" viewBox="0 0 187 43" version="1.1" xmlns="http://www.w3.org/2000/svg" xmlns:xlink="http://www.w3.org/1999/xlink">
    <!-- Generator: Sketch 53.2 (72643) - https://sketchapp.com -->
    <title>Group 2</title>
    <desc>Created with Sketch.</desc>
    <defs>
        <rect id="path-1" x="0" y="0" width="185" height="40" rx="2"></rect>
        <filter x="-1.1%" y="-5.0%" width="102.2%" height="112.5%" filterUnits="objectBoundingBox" id="filter-2">
            <feOffset dx="0" dy="1" in="SourceAlpha" result="shadowOffsetOuter1"></feOffset>
            <feGaussianBlur stdDeviation="0.5" in="shadowOffsetOuter1" result="shadowBlurOuter1"></feGaussianBlur>
            <feColorMatrix values="0 0 0 0 0   0 0 0 0 0   0 0 0 0 0  0 0 0 0.24 0" type="matrix" in="shadowBlurOuter1" result="shadowMatrixOuter1"></feColorMatrix>
            <feOffset dx="0" dy="0" in="SourceAlpha" result="shadowOffsetOuter2"></feOffset>
            <feGaussianBlur stdDeviation="0.5" in="shadowOffsetOuter2" result="shadowBlurOuter2"></feGaussianBlur>
            <feColorMatrix values="0 0 0 0 0   0 0 0 0 0   0 0 0 0 0  0 0 0 0.12 0" type="matrix" in="shadowBlurOuter2" result="shadowMatrixOuter2"></feColorMatrix>
            <feMerge>
                <feMergeNode in="shadowMatrixOuter1"></feMergeNode>
                <feMergeNode in="shadowMatrixOuter2"></feMergeNode>
            </feMerge>
        </filter>
    </defs>
    <g id="Google-Button" stroke="none" stroke-width="1" fill="none" fill-rule="evenodd">
        <g id="Artboard" transform="translate(-58.000000, -91.000000)">
            <g id="Group-2" transform="translate(59.000000, 92.000000)">
                <g id="button">
                    <g id="button-bg">
                        <use fill="black" fill-opacity="1" filter="url(#filter-2)" xlink:href="#path-1"></use>
                        <use fill="#4469B0" fill-rule="evenodd" xlink:href="#path-1"></use>
                    </g>
                </g>
                <text id="Sign-in-with-Faceboo" font-family="Roboto-Medium, Roboto" font-size="14" font-weight="400" letter-spacing="0.0199999996" fill="#FFFFFF">
                    <tspan x="39" y="25">Sign in with Faceboo</tspan>
                    <tspan x="169.070898" y="25">k</tspan>
                </text>
                <g id="facebook-square-brands" transform="translate(8.000000, 9.000000)" fill="#FFFFFF" fill-rule="nonzero">
                    <path d="M22,2.35714286 L22,19.6428571 C22,20.9441964 20.9441964,22 19.6428571,22 L15.4540179,22 L15.4540179,13.2982143 L18.4299107,13.2982143 L18.8571429,9.97857143 L15.4540179,9.97857143 L15.4540179,7.85714286 C15.4540179,6.89464286 15.7191964,6.24151786 17.0991071,6.24151786 L18.8571429,6.24151786 L18.8571429,3.27544643 C18.5526786,3.23616071 17.5116071,3.14285714 16.29375,3.14285714 C13.7598214,3.14285714 12.0214286,4.68973214 12.0214286,7.53303571 L12.0214286,9.98348214 L9.03571429,9.98348214 L9.03571429,13.303125 L12.0263393,13.303125 L12.0263393,22 L2.35714286,22 C1.05580357,22 0,20.9441964 0,19.6428571 L0,2.35714286 C0,1.05580357 1.05580357,0 2.35714286,0 L19.6428571,0 C20.9441964,0 22,1.05580357 22,2.35714286 Z" id="Path"></path>
                </g>
            </g>
        </g>
    </g>
</svg>