<?xml version="1.0" encoding="UTF-8"?>
<svg width="187px" height="43px" viewBox="0 0 187 43" version="1.1" xmlns="http://www.w3.org/2000/svg" xmlns:xlink="http://www.w3.org/1999/xlink">
    <!-- Generator: Sketch 53.2 (72643) - https://sketchapp.com -->
    <title>Group 4</title>
    <desc>Created with Sketch.</desc>
    <defs>
        <rect id="path-1" x="0" y="0" width="185" height="40" rx="2"></rect>
        <filter x="-1.1%" y="-5.0%" width="102.2%" height="112.5%" filterUnits="objectBoundingBox" id="filter-2">
            <feOffset dx="0" dy="1" in="SourceAlpha" result="shadowOffsetOuter1"></feOffset>
            <feGaussianBlur stdDeviation="0.5" in="shadowOffsetOuter1" result="shadowBlurOuter1"></feGaussianBlur>
            <feColorMatrix values="0 0 0 0 0   0 0 0 0 0   0 0 0 0 0  0 0 0 0.24 0" type="matrix" in="shadowBlurOuter1" result="shadowMatrixOuter1"></feColorMatrix>
            <feOffset dx="0" dy="0" in="SourceAlpha" result="shadowOffsetOuter2"></feOffset>
            <feGaussianBlur stdDeviation="0.5" in="shadowOffsetOuter2" result="shadowBlurOuter2"></feGaussianBlur>
            <feColorMatrix values="0 0 0 0 0   0 0 0 0 0   0 0 0 0 0  0 0 0 0.12 0" type="matrix" in="shadowBlurOuter2" result="shadowMatrixOuter2"></feColorMatrix>
            <feMerge>
                <feMergeNode in="shadowMatrixOuter1"></feMergeNode>
                <feMergeNode in="shadowMatrixOuter2"></feMergeNode>
            </feMerge>
        </filter>
    </defs>
    <g id="Google-Button" stroke="none" stroke-width="1" fill="none" fill-rule="evenodd">
        <g id="Artboard" transform="translate(-58.000000, -185.000000)">
            <g id="Group-4" transform="translate(59.000000, 186.000000)">
                <g id="button">
                    <g id="button-bg">
                        <use fill="black" fill-opacity="1" filter="url(#filter-2)" xlink:href="#path-1"></use>
                        <use fill="#3f4347" fill-rule="evenodd" xlink:href="#path-1"></use>
                    </g>
                </g>
                <text id="Sign-in-with-Github" font-family="Roboto-Medium, Roboto" font-size="14" font-weight="400" letter-spacing="0.21875" fill="#FFFFFF">
                    <tspan x="50" y="25">Sign in with Github</tspan>
                </text>
                <g id="github-brands" transform="translate(12.000000, 7.000000)" fill="#FFFFFF" fill-rule="nonzero">
                    <path d="M9.03084677,21.1192074 C9.03084677,21.2276779 8.90564516,21.3144543 8.74778226,21.3144543 C8.56814516,21.3307248 8.44294355,21.2439484 8.44294355,21.1192074 C8.44294355,21.0107369 8.56814516,20.9239604 8.72600806,20.9239604 C8.88931452,20.9076899 9.03084677,20.9944663 9.03084677,21.1192074 Z M7.33790323,20.8751487 C7.29979839,20.9836192 7.40866935,21.1083603 7.57197581,21.1409015 C7.71350806,21.1951367 7.87681452,21.1409015 7.90947581,21.032431 C7.9421371,20.9239604 7.83870968,20.7992194 7.67540323,20.7504076 C7.53387097,20.712443 7.37600806,20.7666782 7.33790323,20.8751487 Z M9.74395161,20.7829488 C9.58608871,20.8209135 9.47721774,20.9239604 9.49354839,21.0487015 C9.50987903,21.157172 9.65141129,21.2276779 9.81471774,21.1897132 C9.97258065,21.1517485 10.0814516,21.0487015 10.065121,20.940231 C10.0487903,20.837184 9.90181452,20.7666782 9.74395161,20.7829488 Z M13.3258065,0 C5.77560484,0 0,5.7109721 0,13.2334016 C0,19.2480911 3.79959677,24.3950166 9.22681452,26.2064741 C9.92358871,26.3312151 10.1685484,25.9027566 10.1685484,25.5502275 C10.1685484,25.2139689 10.1522177,23.3591233 10.1522177,22.220183 C10.1522177,22.220183 6.34173387,23.0337118 5.54153226,20.6039725 C5.54153226,20.6039725 4.92096774,19.0257266 4.02822581,18.6189622 C4.02822581,18.6189622 2.78165323,17.7674687 4.11532258,17.7837393 C4.11532258,17.7837393 5.47076613,17.8922098 6.21653226,19.1830088 C7.40866935,21.2764896 9.40645161,20.6744783 10.184879,20.3165256 C10.3100806,19.4487616 10.6639113,18.8467503 11.0558468,18.4887976 C8.01290323,18.152539 4.94274194,17.7132335 4.94274194,12.4958022 C4.94274194,11.0043328 5.35645161,10.2558863 6.22741935,9.30134582 C6.0858871,8.94881668 5.62318548,7.49531191 6.36895161,5.61877217 C7.50665323,5.26624303 10.125,7.08312399 10.125,7.08312399 C11.2137097,6.77940657 12.3840726,6.62212434 13.5435484,6.62212434 C14.7030242,6.62212434 15.8733871,6.77940657 16.9620968,7.08312399 C16.9620968,7.08312399 19.5804435,5.2608195 20.7181452,5.61877217 C21.4639113,7.50073543 21.0012097,8.94881668 20.8596774,9.30134582 C21.7306452,10.2613098 22.2641129,11.0097563 22.2641129,12.4958022 C22.2641129,17.7295041 19.0578629,18.1471155 16.0149194,18.4887976 C16.5157258,18.9172561 16.9403226,19.7307849 16.9403226,21.0053133 C16.9403226,22.8330413 16.9239919,25.0946514 16.9239919,25.5393804 C16.9239919,25.8919096 17.1743952,26.3203681 17.8657258,26.195627 C23.3092742,24.3950166 27,19.2480911 27,13.2334016 C27,5.7109721 20.8760081,0 13.3258065,0 Z M5.29112903,18.7057386 C5.2203629,18.7599739 5.23669355,18.884715 5.32923387,18.9877619 C5.41633065,19.0745383 5.54153226,19.112503 5.61229839,19.0419972 C5.68306452,18.9877619 5.66673387,18.8630209 5.57419355,18.7599739 C5.48709677,18.6731975 5.36189516,18.6352328 5.29112903,18.7057386 Z M4.70322581,18.2664331 C4.66512097,18.3369389 4.71955645,18.4237153 4.82842742,18.4779506 C4.91552419,18.5321858 5.02439516,18.5159152 5.0625,18.4399859 C5.10060484,18.3694801 5.04616935,18.2827036 4.93729839,18.2284684 C4.82842742,18.1959272 4.74133065,18.2121978 4.70322581,18.2664331 Z M6.46693548,20.1972081 C6.37983871,20.2677139 6.4125,20.4304197 6.53770161,20.5334666 C6.66290323,20.6582077 6.82076613,20.6744783 6.89153226,20.5877019 C6.96229839,20.5171961 6.9296371,20.3544903 6.82076613,20.2514433 C6.70100806,20.1267022 6.53770161,20.1104317 6.46693548,20.1972081 Z M5.84637097,19.3999499 C5.75927419,19.4541851 5.75927419,19.5951968 5.84637097,19.7199378 C5.93346774,19.8446789 6.08044355,19.8989142 6.15120968,19.8446789 C6.23830645,19.7741731 6.23830645,19.6331614 6.15120968,19.5084204 C6.075,19.3836793 5.93346774,19.329444 5.84637097,19.3999499 Z" id="Shape"></path>
                </g>
            </g>
        </g>
    </g>
</svg>