<?xml version="1.0" encoding="UTF-8"?>
<svg width="294px" height="167px" viewBox="0 0 294 167" version="1.1" xmlns="http://www.w3.org/2000/svg" xmlns:xlink="http://www.w3.org/1999/xlink">
    <!-- Generator: Sketch 54.1 (76490) - https://sketchapp.com -->
    <title>Group</title>
    <desc>Created with Sketch.</desc>
    <g id="Page-1" stroke="none" stroke-width="1" fill="none" fill-rule="evenodd">
        <g id="Artboard" transform="translate(-91.000000, -110.000000)">
            <g id="Group" transform="translate(93.000000, 99.106278)">
                <text id="FlyX" font-family="FredokaOne-Regular, Fredoka One" font-size="90" font-weight="normal" letter-spacing="-1.285714" fill="#D9D9D9">
                    <tspan x="50.206428" y="154.960484">FlyX</tspan>
                </text>
                <path d="M0,147.960484 C17.9724409,85.6352315 46.4015748,55.1646433 85.2874016,56.5487197 C103.797914,57.2075707 132,72.8937217 157.5,71.8937217 C169.770133,71.41254 200.270133,59.7681276 249,36.9604844" id="Line" stroke="#E4E4E4" stroke-width="3" stroke-linecap="round" stroke-dasharray="7"></path>
                <g id="plane-solid-(1)" transform="translate(274.433230, 25.500000) rotate(-28.000000) translate(-274.433230, -25.500000) translate(254.933230, 8.000000)" fill="#D9D9D9" fill-rule="nonzero">
                    <path d="M32.0825843,12.8350043 L24.5425843,12.8350043 L17.6088719,0.620238694 C17.4206708,0.289209835 17.0707641,0.0849803989 16.6918538,0.0850043189 L12.3706533,0.0850043189 C11.6693654,0.0850043189 11.1633561,0.760355881 11.3559959,1.43902776 L14.5906288,12.8350043 L7.8046948,12.8350043 L4.95468168,9.01000432 C4.75544465,8.74238713 4.44207515,8.58500432 4.11023335,8.58500432 L1.47199203,8.58500432 C0.785218039,8.58500432 0.281187941,9.23445744 0.448098431,9.90516057 L2.52689272,17.0850043 L0.448098431,24.2648481 C0.281187941,24.9355512 0.785218039,25.5850043 1.47199203,25.5850043 L4.11023335,25.5850043 C4.44273488,25.5850043 4.75544465,25.4276215 4.95468168,25.1600043 L7.8046948,21.3350043 L14.5906288,21.3350043 L11.3559959,32.7303168 C11.1633561,33.4089887 11.6693654,34.0850043 12.3706533,34.0850043 L16.6918538,34.0850043 C17.0705361,34.0850043 17.4201905,33.8804731 17.6082121,33.5497699 L24.5425843,21.3350043 L32.0825843,21.3350043 C34.4147131,21.3350043 38.4159468,19.4324653 38.4159468,17.0850043 C38.4159468,14.7375434 34.4147131,12.8350043 32.0825843,12.8350043 Z" id="Path"></path>
                </g>
            </g>
        </g>
    </g>
</svg>