<?xml version="1.0" encoding="UTF-8"?>
<svg width="15px" height="12px" viewBox="0 0 15 12" version="1.1" xmlns="http://www.w3.org/2000/svg" xmlns:xlink="http://www.w3.org/1999/xlink">
    <!-- Generator: Sketch 52.3 (67297) - http://www.bohemiancoding.com/sketch -->
    <title>plane-departure-solid</title>
    <desc>Created with Sketch.</desc>
    <g id="Page-1" stroke="none" stroke-width="1" fill="none" fill-rule="evenodd">
        <g id="Artboard" transform="translate(-316.000000, -107.000000)" fill="#57B8FF" fill-rule="nonzero">
            <g id="plane-departure-solid" transform="translate(316.000000, 107.000000)">
                <path d="M14.6028037,9.74299065 L0.397196262,9.74299065 C0.190654206,9.74299065 0.023364486,9.91028037 0.023364486,10.1168224 L0.023364486,10.864486 C0.023364486,11.071028 0.190654206,11.2383178 0.397196262,11.2383178 L14.6028037,11.2383178 C14.8093458,11.2383178 14.9766355,11.071028 14.9766355,10.864486 L14.9766355,10.1168224 C14.9766355,9.91028037 14.8093458,9.74299065 14.6028037,9.74299065 Z M1.90537383,7.24929907 C2.0521028,7.40911215 2.25817757,7.49976636 2.47383178,7.49953271 L5.52383178,7.4953271 C5.76453088,7.4950051 6.00177275,7.43801582 6.21635514,7.32897196 L13.014486,3.87920561 C13.6392523,3.56214953 14.1992991,3.10957944 14.5803738,2.51682243 C15.0081776,1.85140187 15.0546729,1.36985981 14.8857477,1.0296729 C14.7172897,0.689252336 14.3077103,0.439252336 13.5247664,0.388317757 C12.8273364,0.342990654 12.1336449,0.526635514 11.5088785,0.843457944 L9.20724299,2.0114486 L4.09742991,0.0941588785 C3.97232214,0.00987789621 3.81138429,-4.66046643e-05 3.67686916,0.0682242991 L2.14065421,0.847897196 C1.89135514,0.974299065 1.83107477,1.30700935 2.01985981,1.51448598 L5.66985981,3.80654206 L3.25841121,5.03037383 L1.56799065,4.17827103 C1.44987889,4.1187222 1.31048654,4.11889568 1.19252336,4.17873832 L0.254906542,4.6546729 C0.0109813084,4.77850467 -0.053271028,5.10140187 0.124766355,5.31074766 L1.90537383,7.24929907 Z" id="Shape"></path>
            </g>
        </g>
    </g>
</svg>