<?xml version="1.0" encoding="UTF-8"?>
<svg width="15px" height="13px" viewBox="0 0 15 13" version="1.1" xmlns="http://www.w3.org/2000/svg" xmlns:xlink="http://www.w3.org/1999/xlink">
    <!-- Generator: Sketch 52.3 (67297) - http://www.bohemiancoding.com/sketch -->
    <title>plane-arrival-solid</title>
    <desc>Created with Sketch.</desc>
    <g id="Page-1" stroke="none" stroke-width="1" fill="none" fill-rule="evenodd">
        <g id="Artboard" transform="translate(-316.000000, -128.000000)" fill="#57B8FF" fill-rule="nonzero">
            <g id="plane-arrival-solid" transform="translate(316.000000, 128.000000)">
                <path d="M14.625,10.5234375 L0.375,10.5234375 C0.1678125,10.5234375 0,10.69125 0,10.8984375 L0,11.6484375 C0,11.855625 0.1678125,12.0234375 0.375,12.0234375 L14.625,12.0234375 C14.8321875,12.0234375 15,11.855625 15,11.6484375 L15,10.8984375 C15,10.69125 14.8321875,10.5234375 14.625,10.5234375 Z M1.05023438,4.84359375 L3.13007813,6.71859375 C3.30073421,6.87268978 3.50521533,6.98452416 3.72703125,7.04507813 L10.4676563,8.88140625 C11.0882813,9.05039063 11.7464062,9.08578125 12.3660937,8.91328125 C13.0614844,8.71945313 13.3842187,8.41617188 13.4735156,8.07632813 C13.5632813,7.73648438 13.4329688,7.3096875 12.9257812,6.78820313 C12.4739063,6.32367188 11.8863281,6.0196875 11.2657031,5.85070313 L8.9803125,5.22820313 L6.628125,0.73171875 C6.59273438,0.595546875 6.48867188,0.489140625 6.35484375,0.452578125 L4.82929687,0.03703125 C4.58179688,-0.03046875 4.33945313,0.16171875 4.34390625,0.42234375 L5.46703125,4.27101562 L3.07171875,3.61851562 L2.42507813,2.02757813 C2.37984375,1.91296875 2.28421875,1.82671875 2.16679688,1.79484375 L1.235625,1.54101562 C0.99328125,1.47492187 0.754453125,1.65820312 0.75,1.91320312 L0.755390625,4.29867187 C0.75984375,4.5075 0.89671875,4.70507812 1.05023438,4.84359375 Z" id="Shape"></path>
            </g>
        </g>
    </g>
</svg>