<?xml version="1.0" encoding="UTF-8"?>
<svg width="20px" height="25px" viewBox="0 0 20 25" version="1.1" xmlns="http://www.w3.org/2000/svg" xmlns:xlink="http://www.w3.org/1999/xlink">
    <!-- Generator: Sketch 54.1 (76490) - https://sketchapp.com -->
    <title>exchange-alt-solid</title>
    <desc>Created with Sketch.</desc>
    <g id="Page-1" stroke="none" stroke-width="1" fill="none" fill-rule="evenodd">
        <g id="Desktop-HD" transform="translate(-96.000000, -311.000000)" fill="#ffffff" fill-rule="nonzero">
            <g id="exchange-alt-solid" transform="translate(106.000000, 323.500000) rotate(90.000000) translate(-106.000000, -323.500000) translate(93.500000, 313.500000)">
                <path d="M3.55271368e-15,5.51574484 L3.55271368e-15,4.72794964 C3.55271368e-15,4.07531054 0.524658203,3.54625682 1.171875,3.54625682 L18.75,3.54625682 L18.75,1.1828712 C18.75,0.130819931 20.0145996,-0.394787185 20.7505371,0.347266665 L24.6567871,4.28624271 C25.1144043,4.74774299 25.1144043,5.49595149 24.6567871,5.95740253 L20.7505371,9.89637858 C20.0173828,10.6355274 18.75,10.1172567 18.75,9.06082329 L18.75,6.69743766 L1.171875,6.69743766 C0.524658203,6.69743766 3.55271368e-15,6.16838394 3.55271368e-15,5.51574484 Z M23.828125,12.9997993 L6.25,12.9997993 L6.25,10.6364137 C6.25,9.58697201 4.98720703,9.05688431 4.24946289,9.80080917 L0.343212891,13.7397852 C-0.114404297,14.2012855 -0.114404297,14.949494 0.343212891,15.410945 L4.24946289,19.3499211 C4.98325195,20.0898085 6.25,19.5698637 6.25,18.5143658 L6.25,16.1509802 L23.828125,16.1509802 C24.4753418,16.1509802 25,15.6219264 25,14.9692874 L25,14.1814921 C25,13.528853 24.4753418,12.9997993 23.828125,12.9997993 Z" id="Shape"></path>
            </g>
        </g>
    </g>
</svg>