<?xml version="1.0" encoding="UTF-8"?>
<svg width="25px" height="26px" viewBox="0 0 25 26" version="1.1" xmlns="http://www.w3.org/2000/svg" xmlns:xlink="http://www.w3.org/1999/xlink">
    <!-- Generator: Sketch 54.1 (76490) - https://sketchapp.com -->
    <title>search-solid</title>
    <desc>Created with Sketch.</desc>
    <g id="Page-1" stroke="none" stroke-width="1" fill="none" fill-rule="evenodd">
        <g id="Desktop-HD" transform="translate(-943.000000, -55.000000)" fill="#FFFFFF" fill-rule="nonzero">
            <g id="search-solid" transform="translate(943.000000, 55.000000)">
                <path d="M24.6600069,22.4786642 L19.7914867,17.4162679 C19.5717441,17.1877746 19.2738707,17.0608339 18.9613479,17.0608339 L18.1653912,17.0608339 C19.513146,15.2684308 20.3139859,13.0139635 20.3139859,10.5614686 C20.3139859,4.72727273 15.7677549,0 10.1569929,0 C4.54623097,0 0,4.72727273 0,10.5614686 C0,16.3956645 4.54623097,21.1229372 10.1569929,21.1229372 C12.5155639,21.1229372 14.6836912,20.290206 16.4074501,18.8887804 L16.4074501,19.7164339 C16.4074501,20.0414022 16.5295294,20.3511376 16.749272,20.5796309 L21.6177922,25.6420271 C22.0768101,26.1193243 22.8190519,26.1193243 23.2731867,25.6420271 L24.6551237,24.2050581 C25.1141416,23.727761 25.1141416,22.9559613 24.6600069,22.4786642 Z M10.1569929,17.0608339 C6.70459196,17.0608339 3.90653574,14.15643 3.90653574,10.5614686 C3.90653574,6.97158481 6.6997088,4.06210331 10.1569929,4.06210331 C13.6093939,4.06210331 16.4074501,6.96650718 16.4074501,10.5614686 C16.4074501,14.1513524 13.6142771,17.0608339 10.1569929,17.0608339 Z" id="Shape"></path>
            </g>
        </g>
    </g>
</svg>