<?xml version="1.0" encoding="UTF-8"?>
<svg width="60px" height="60px" viewBox="0 0 60 60" version="1.1" xmlns="http://www.w3.org/2000/svg" xmlns:xlink="http://www.w3.org/1999/xlink">
    <!-- Generator: Sketch 52.4 (67378) - http://www.bohemiancoding.com/sketch -->
    <title>Group</title>
    <desc>Created with Sketch.</desc>
    <g id="Page-1" stroke="none" stroke-width="1" fill="none" fill-rule="evenodd">
        <g id="Desktop-HD" transform="translate(-1340.000000, -47.000000)" fill="#FFFFFF">
            <g id="Group" transform="translate(1340.000000, 47.000000)">
                <g id="search-solid" fill-rule="nonzero">
                    <path d="M59.1840165,51.8738404 L47.4995681,40.1913876 C46.9721857,39.6640953 46.2572897,39.3711552 45.5072348,39.3711552 L43.5969389,39.3711552 C46.8315505,35.2348403 48.753566,30.0322234 48.753566,24.3726199 C48.753566,10.9090909 37.8426117,0 24.376783,0 C10.9109543,0 0,10.9090909 0,24.3726199 C0,37.8361488 10.9109543,48.7452397 24.376783,48.7452397 C30.0373533,48.7452397 35.2408589,46.8235524 39.3778803,43.5894932 L39.3778803,45.4994629 C39.3778803,46.2493897 39.6708704,46.9641637 40.1982528,47.4914559 L51.8827012,59.1739088 C52.9843443,60.2753637 54.7657245,60.2753637 55.855648,59.1739088 L59.1722969,55.8578264 C60.2739399,54.7563714 60.2739399,52.9752954 59.1840165,51.8738404 Z M24.376783,39.3711552 C16.0910207,39.3711552 9.37568578,32.6686847 9.37568578,24.3726199 C9.37568578,16.0882726 16.0793011,9.37408456 24.376783,9.37408456 C32.6625453,9.37408456 39.3778803,16.076555 39.3778803,24.3726199 C39.3778803,32.6569671 32.6742649,39.3711552 24.376783,39.3711552 Z" id="Shape"></path>
                </g>
                <g id="plane-solid" transform="translate(25.194393, 23.530460) rotate(-17.000000) translate(-25.194393, -23.530460) translate(15.194393, 14.530460)">
                    <path d="M16.4838296,6.55712136 L12.617163,6.55712136 L9.06141297,0.293138987 C8.96489958,0.123380598 8.78546025,0.0186475538 8.59114727,0.0186598205 L6.37514704,0.0186598205 C6.0155122,0.0186598205 5.75602026,0.364993955 5.85480989,0.713030814 L7.51359602,6.55712136 L4.03362986,6.55712136 L2.57208467,4.5955829 C2.46991183,4.45834331 2.30920952,4.37763418 2.13903424,4.37763418 L0.786089977,4.37763418 C0.433898185,4.37763418 0.175421211,4.71068706 0.261016335,5.05463738 L1.32706469,8.73660854 L0.261016335,12.4185797 C0.175421211,12.76253 0.433898185,13.0955829 0.786089977,13.0955829 L2.13903424,13.0955829 C2.30954784,13.0955829 2.46991183,13.0148738 2.57208467,12.8776342 L4.03362986,10.9160957 L7.51359602,10.9160957 L5.85480989,16.7598457 C5.75602026,17.1078826 6.0155122,17.4545573 6.37514704,17.4545573 L8.59114727,17.4545573 C8.78534333,17.4545573 8.96465327,17.3496694 9.06107465,17.1800781 L12.617163,10.9160957 L16.4838296,10.9160957 C17.6797931,10.9160957 19.7317078,9.94043466 19.7317078,8.73660854 C19.7317078,7.53278242 17.6797931,6.55712136 16.4838296,6.55712136 Z" id="Path"></path>
                </g>
            </g>
        </g>
    </g>
</svg>